# xmcd CD database file generated by Grip 3.3.1
# 
# Track frame offsets:
#       150
#       15768
#       39743
#       65628
#       85330
#       111773
#       130638
#       162105
#       183024
#       206993
#       224429
#       250892
# 
# Disc length: 3625 seconds
# 
# Revision: 2
# Processed by: cddbd v1.5.2PL0 Copyright (c) Steve Scherf et al.
# Submitted via: Grip 3.3.1
# 
DISCID=a00e270c
DTITLE=Charlie  A'Court - Color Me Gone
DYEAR=2003
DGENRE=Blues
TTITLE0=You Got A Friend In Me
TTITLE1=I'M Coming Home
TTITLE2=Color Me Gone
TTITLE3=Bridges To Burn
TTITLE4=When The Night comes
TTITLE5=Carolina
TTITLE6=Hello Love
TTITLE7=I'D Do This For You
TTITLE8=Alone
TTITLE9=Lady Woman
TTITLE10=Be My Angel
TTITLE11=All I Need
EXTD=YEAR: 2003
EXTT0=
EXTT1=
EXTT2=
EXTT3=
EXTT4=
EXTT5=
EXTT6=
EXTT7=
EXTT8=
EXTT9=
EXTT10=
EXTT11=
PLAYORDER=
